<?xml version="1.0" standalone="no"?>
<!DOCTYPE svg PUBLIC "-//W3C//DTD SVG 20010904//EN"
 "http://www.w3.org/TR/2001/REC-SVG-20010904/DTD/svg10.dtd">
<svg version="1.0" xmlns="http://www.w3.org/2000/svg"
 width="72.000000pt" height="72.000000pt" viewBox="0 0 72.000000 72.000000"
 preserveAspectRatio="xMidYMid meet">

<g transform="translate(0.000000,72.000000) scale(0.100000,-0.100000)"
fill="#000000" stroke="none">
<path d="M321 549 c-22 -26 -30 -46 -26 -57 6 -15 9 -14 26 6 18 23 19 22 21
-170 3 -164 5 -193 18 -193 13 0 15 29 18 193 2 192 3 193 21 170 17 -20 20
-21 26 -6 4 11 -4 31 -26 57 -18 23 -35 41 -39 41 -4 0 -21 -18 -39 -41z"/>
</g>
</svg>
